[Header]
FileType HTR
DataType HTRS
FileVersion 1
NumSegments 22
NumFrames 5
DataFrameRate 24
EulerRotationOrder ZYX
CalibrationUnits mm
RotationUnits Degrees
GlobalAxisofGravity Y
BoneLengthAxis Y
ScaleFactor 1.0
[SegmentNames&Hierarchy]
reference	GLOBAL
Hips	reference
Spine	Hips
Spine1	Spine
Neck	Spine1
Head	Neck
LeftShoulder	Spine1
LeftArm	LeftShoulder
LeftForeArm	LeftArm
LeftHand	LeftForeArm
RightShoulder	Spine1
RightArm	RightShoulder
RightForeArm	RightArm
RightHand	RightForeArm
LeftUpLeg	Hips
LeftLeg	LeftUpLeg
LeftFoot	LeftLeg
LeftToeBase	LeftFoot
RightUpLeg	Hips
RightLeg	RightUpLeg
RightFoot	RightLeg
RightToeBase	RightFoot
[BasePosition]
reference	0	0	0	0	0	0	1
Hips	0	0	0	0	0	0	1
Spine	0	0	0	0	-0	90	1
Spine1	0	0	0	0	0	0	1
Neck	0	0	0	-7.352327771	-7.352327771	90	1
Head	0	0	0	0	-0	90	1
LeftShoulder	0	0	0	0	0	0	1
LeftArm	0	0	0	0	0	0	1
LeftForeArm	0	0	0	0	0	0	1
LeftHand	0	0	0	0	0	0	1
RightShoulder	0	0	0	0	-0	180	1
RightArm	0	0	0	0	-0	180	1
RightForeArm	0	0	0	0	-0	180	1
RightHand	0	0	0	0	-0	180	1
LeftUpLeg	0	0	0	0	-0	-90	1
LeftLeg	0	0	0	0	-0	-90	1
LeftFoot	0	0	0	66.57146043	-66.57146043	-90	1
LeftToeBase	0	0	0	0	-90	0	1
RightUpLeg	0	0	0	0	-0	-90	1
RightLeg	0	0	0	0	-0	-90	1
RightFoot	0	0	0	66.57146043	-66.57146043	-90	1
RightToeBase	0	0	0	0	-90	0	1
[reference]
58	0	0	0	0	-0	0	1.0
59	0	0	0	0	-0	0	1.0
60	0	0	0	0	-0	0	1.0
61	0	0	0	0	-0	0	1.0
62	0	0	0	0	-0	0	1.0
[Hips]
58	10.40517807	8.469906807	2.294621706	1.163636208	-103.2373657	2.501231194	1.0
59	10.63292885	8.477916718	2.358854294	1.028280258	-103.8271713	2.133684397	1.0
60	10.88693142	8.480779648	2.424827576	0.1051940098	-106.2032242	2.558485985	1.0
61	11.19927025	8.423511505	2.497809887	-1.880508423	-109.6278534	5.238601685	1.0
62	11.60444069	8.261395454	2.562882423	-3.738261223	-113.8974228	8.739914894	1.0
[Spine]
58	0	0.7457100153	0	-3.239572763	-1.954545021	-89.33281708	1.0
59	0	0.7457100153	0	-3.140461445	-3.078074217	-89.46482849	1.0
60	0	0.7457100153	0	-2.907175064	-3.62732935	-89.68775177	1.0
61	0	0.7457100153	0	-2.606677532	-2.979237795	-88.81852722	1.0
62	0	0.7457100153	0	-1.661994696	-2.811136484	-90.27620697	1.0
[Spine1]
58	0	2.140589952	0	6.556938171	-0.3038053215	-4.651569366	1.0
59	0	2.140589952	0	6.547886372	-0.9273085594	-3.875990391	1.0
60	0	2.140589952	0	6.274778366	-1.038203359	-3.363285065	1.0
61	0	2.140589952	0	5.82186079	-0.7988696694	-3.977767467	1.0
62	0	2.140589952	0	3.394024849	-0.9499875307	1.310338497	1.0
[Neck]
58	0	2.32246995	0	-25.36531067	13.07064533	-84.73069763	1.0
59	0	2.32246995	0	-26.04423141	14.58336449	-82.69351196	1.0
60	0	2.32246995	0	-26.68187904	15.82546139	-84.11732483	1.0
61	0	2.32246995	0	-27.68091583	16.9064312	-84.26383209	1.0
62	0	2.32246995	0	-25.32772255	17.71943283	-88.88392639	1.0
[Head]
58	0	1.409579992	0.1818799973	0.6843076348	5.854274273	-94.80252075	1.0
59	0	1.409579992	0.1818799973	2.390103817	7.423783302	-96.1926651	1.0
60	0	1.409579992	0.1818799973	3.823463917	9.14235878	-96.60414124	1.0
61	0	1.409579992	0.1818799973	4.859572411	10.22678185	-95.76392365	1.0
62	0	1.409579992	0.1818799973	0.2872575521	11.36663437	-93.92449951	1.0
[LeftShoulder]
58	0.3668199778	1.946700096	-0.02662999928	-23.35625839	-17.40442467	2.048033237	1.0
59	0.3668199778	1.946700096	-0.02662999928	-24.8452282	-16.99421501	2.763170004	1.0
60	0.3668199778	1.946700096	-0.02662999928	-25.08838654	-17.01425934	4.221074104	1.0
61	0.3668199778	1.946700096	-0.02662999928	-24.87423515	-15.98567581	3.873836756	1.0
62	0.3668199778	1.946700096	-0.02662999928	-20.79243088	-15.58221245	-0.7513837814	1.0
[LeftArm]
58	1.140689969	0	0	62.22957611	-5.774511337	-74.88578796	1.0
59	1.140689969	0	0	63.98240662	-8.896588326	-74.79469299	1.0
60	1.140689969	0	0	62.95102692	-9.603168488	-74.49478912	1.0
61	1.140689969	0	0	61.60884857	-7.97702837	-72.72920227	1.0
62	1.140689969	0	0	59.89406586	-3.93180871	-69.66874695	1.0
[LeftForeArm]
58	2.749800205	0	0	-42.1594429	-83.0970459	41.72554779	1.0
59	2.749800205	0	0	-108.6200562	-84.19223022	109.7074814	1.0
60	2.749800205	0	0	-143.149353	-80.08019257	143.5953369	1.0
61	2.749800205	0	0	-157.4976959	-77.49571991	157.3110199	1.0
62	2.749800205	0	0	-145.6148071	-76.18281555	146.9187164	1.0
[LeftHand]
58	2.295179844	0	0	-6.057090759	-22.44443512	6.185549736	1.0
59	2.295179844	0	0	-4.717934132	-21.23675728	1.319172502	1.0
60	2.295179844	0	0	-5.640359402	-22.30931854	-1.300011039	1.0
61	2.295179844	0	0	-5.073746681	-23.00932121	-2.445163727	1.0
62	2.295179844	0	0	-6.458399773	-23.79940796	-3.221376419	1.0
[RightShoulder]
58	-0.3601199985	1.946700096	-0.02662999928	-2.187720299	1.727061033	178.2855682	1.0
59	-0.3601199985	1.946700096	-0.02662999928	-2.745341539	1.890765667	178.870575	1.0
60	-0.3601199985	1.946700096	-0.02662999928	-4.202702045	3.062867641	177.1049805	1.0
61	-0.3601199985	1.946700096	-0.02662999928	-4.454918385	3.756676435	177.3964844	1.0
62	-0.3601199985	1.946700096	-0.02662999928	-2.462313652	5.840865135	173.5226898	1.0
[RightArm]
58	-1.140689969	0	0	29.83781433	-14.99441624	-121.4647903	1.0
59	-1.140689969	0	0	28.94260406	-16.81193924	-125.6218567	1.0
60	-1.140689969	0	0	30.78015518	-18.10813713	-126.3193512	1.0
61	-1.140689969	0	0	34.65385437	-16.56410599	-124.2294769	1.0
62	-1.140689969	0	0	35.62690735	-11.70849323	-118.1361847	1.0
[RightForeArm]
58	-2.749800205	0	0	35.35598755	50.60441971	209.2496948	1.0
59	-2.749800205	0	0	40.54685974	47.46828079	217.2969666	1.0
60	-2.749800205	0	0	41.32987976	45.88330841	220.8063202	1.0
61	-2.749800205	0	0	38.41705704	46.54875946	215.8770447	1.0
62	-2.749800205	0	0	30.70743561	48.11758041	208.0088196	1.0
[RightHand]
58	-2.295179844	0	0	16.52906609	25.20307922	158.9360046	1.0
59	-2.295179844	0	0	18.97688293	24.86006165	158.8881531	1.0
60	-2.295179844	0	0	18.88802719	24.19019699	159.0240936	1.0
61	-2.295179844	0	0	17.83790779	25.08416748	158.9894867	1.0
62	-2.295179844	0	0	14.61868191	22.40652847	158.4234619	1.0
[LeftUpLeg]
58	0.9094099998	0	0	-21.06505013	10.27894878	92.40621948	1.0
59	0.9094099998	0	0	-13.02593422	11.41653156	93.04399109	1.0
60	0.9094099998	0	0	-4.618438721	11.6539402	91.15318298	1.0
61	0.9094099998	0	0	3.587836981	7.012823582	89.62316132	1.0
62	0.9094099998	0	0	2.595790148	1.437221885	89.93963623	1.0
[LeftLeg]
58	0	-4.498080254	0	64.25775146	-4.31921196	66.05366516	1.0
59	0	-4.498080254	0	60.37336731	-1.325318933	71.21057129	1.0
60	0	-4.498080254	0	49.45728302	5.398710251	81.61051941	1.0
61	0	-4.498080254	0	13.40406895	-15.75974274	86.63611603	1.0
62	0	-4.498080254	0	11.01735878	-24.44778442	86.58384705	1.0
[LeftFoot]
58	0	-3.729400158	0	-46.41117477	116.1178818	4.399270058	1.0
59	0	-3.729400158	0	-86.74633789	120.7018433	-47.92876434	1.0
60	0	-3.729400158	0	-89.12358093	119.3451691	-47.35004807	1.0
61	0	-3.729400158	0	-88.12794495	119.5761261	-46.39451599	1.0
62	0	-3.729400158	0	-88.12794495	119.5761261	-46.39451599	1.0
[LeftToeBase]
58	0	-0.5911099911	1.364109993	0	0	0	1.0
59	0	-0.5911099911	1.364109993	0	0	0	1.0
60	0	-0.5911099911	1.364109993	0	0	0	1.0
61	0	-0.5911099911	1.364109993	0	0	0	1.0
62	0	-0.5911099911	1.364109993	0	0	0	1.0
[RightUpLeg]
58	-0.9094099998	0	0	-11.1322937	-5.21560955	94.83867645	1.0
59	-0.9094099998	0	0	-10.72341728	-3.344920158	93.98973083	1.0
60	-0.9094099998	0	0	-12.67883873	-2.966088295	95.05003357	1.0
61	-0.9094099998	0	0	-18.25302124	-4.188528061	98.16716003	1.0
62	-0.9094099998	0	0	-24.62339592	-0.6303964853	102.0840302	1.0
[RightLeg]
58	0	-4.498080254	0	19.22662735	2.264855385	88.36180115	1.0
59	0	-4.498080254	0	16.14114571	1.816435695	89.56425476	1.0
60	0	-4.498080254	0	16.21401978	3.457757473	88.63227844	1.0
61	0	-4.498080254	0	21.71646881	8.054067612	88.54748535	1.0
62	0	-4.498080254	0	26.12569237	1.178283572	82.98651123	1.0
[RightFoot]
58	0	-3.729400158	0	38.3506012	63.91901398	88.72579956	1.0
59	0	-3.729400158	0	34.62922668	66.25824738	82.40623474	1.0
60	0	-3.729400158	0	35.23117828	67.8849411	81.80541992	1.0
61	0	-3.729400158	0	34.60531235	68.18759155	80.13677216	1.0
62	0	-3.729400158	0	59.47396088	71.85523987	106.326828	1.0
[RightToeBase]
58	0	-0.5911099911	1.364109993	0	0	0	1.0
59	0	-0.5911099911	1.364109993	0	0	0	1.0
60	0	-0.5911099911	1.364109993	0	0	0	1.0
61	0	-0.5911099911	1.364109993	0	0	0	1.0
62	0	-0.5911099911	1.364109993	0	0	0	1.0
[EndOfFile]
